<svg width="32" height="32" viewBox="0 0 72 72" fill="none" xmlns="http://www.w3.org/2000/svg">
<path d="M20.9941 0C9.41714 0 0 9.42586 0 21.0059V51.0059C0 62.5829 9.42586 72 21.0059 72H51.0059C62.5829 72 72 62.5741 72 50.9941V20.9941C72 9.41714 62.5741 0 50.9941 0H20.9941ZM57 12C58.656 12 60 13.344 60 15C60 16.656 58.656 18 57 18C55.344 18 54 16.656 54 15C54 13.344 55.344 12 57 12ZM36 18C45.927 18 54 26.073 54 36C54 45.927 45.927 54 36 54C26.073 54 18 45.927 18 36C18 26.073 26.073 18 36 18ZM36 24C32.8174 24 29.7652 25.2643 27.5147 27.5147C25.2643 29.7652 24 32.8174 24 36C24 39.1826 25.2643 42.2348 27.5147 44.4853C29.7652 46.7357 32.8174 48 36 48C39.1826 48 42.2348 46.7357 44.4853 44.4853C46.7357 42.2348 48 39.1826 48 36C48 32.8174 46.7357 29.7652 44.4853 27.5147C42.2348 25.2643 39.1826 24 36 24Z" fill="#4F0077"/>
</svg>
