<svg width="33" height="33" viewBox="0 0 33 33" fill="none" xmlns="http://www.w3.org/2000/svg">
<path d="M26.1457 32.5063C24.7512 32.5063 22.7922 32.0019 19.8587 30.363C16.2916 28.3626 13.5324 26.5158 9.98456 22.9772C6.56386 19.5587 4.89924 17.3454 2.56948 13.1059C-0.0624916 8.31922 0.386172 5.81014 0.887703 4.73777C1.48497 3.45608 2.36658 2.6895 3.5061 1.92863C4.15333 1.50457 4.83827 1.14105 5.55223 0.842692C5.62367 0.811971 5.69011 0.782679 5.74941 0.756245C6.10305 0.596927 6.63888 0.356164 7.31759 0.613359C7.77054 0.783394 8.17491 1.13132 8.80789 1.75645C10.106 3.03671 11.8799 5.88801 12.5344 7.28829C12.9737 8.23206 13.2645 8.85504 13.2652 9.55376C13.2652 10.3718 12.8537 11.0026 12.3543 11.6835C12.2607 11.8114 12.1679 11.9335 12.0778 12.0521C11.5342 12.7666 11.4149 12.973 11.4934 13.3417C11.6528 14.0825 12.8409 16.288 14.7934 18.2362C16.7459 20.1845 18.8878 21.2976 19.6315 21.4562C20.0159 21.5384 20.2267 21.414 20.9639 20.8511C21.0697 20.7703 21.1783 20.6867 21.2919 20.6032C22.0535 20.0366 22.655 19.6358 23.4537 19.6358H23.458C24.1532 19.6358 24.7483 19.9373 25.7342 20.4346C27.0202 21.0833 29.9572 22.8343 31.2453 24.1339C31.8719 24.7654 32.2213 25.1684 32.392 25.6206C32.6492 26.3015 32.407 26.8351 32.2491 27.1924C32.2227 27.2517 32.1934 27.3167 32.1627 27.3888C31.8619 28.1015 31.4963 28.785 31.0703 29.4307C30.3109 30.5666 29.5414 31.4461 28.2569 32.0441C27.5972 32.3561 26.8754 32.5141 26.1457 32.5063Z" fill="#4F0077"/>
</svg>
